<svg width="553" height="530" fill="none" xmlns="http://www.w3.org/2000/svg"><g clip-path="url(#a)"><path fill-rule="evenodd" clip-rule="evenodd" d="M515.97 282.296c11.146 11.145 11.146 29.216 0 40.361L356.027 482.6c-11.146 11.146-29.216 11.146-40.362 0-11.145-11.145-11.145-29.216 0-40.361l159.943-159.943c11.146-11.146 29.216-11.146 40.362 0Z" fill="#F25720"/><path fill-rule="evenodd" clip-rule="evenodd" d="M544.507 254.004c11.146 11.145 11.146 29.216 0 40.362l-88.593 88.593c-11.145 11.145-29.216 11.145-40.362 0-11.145-11.146-11.145-29.216 0-40.362l88.593-88.593c11.146-11.146 29.217-11.146 40.362 0Z" fill="#F29524"/><path fill-rule="evenodd" clip-rule="evenodd" d="M544.118 139.417c11.146 11.145 11.146 29.216 0 40.361l-88.593 88.593c-11.145 11.146-29.216 11.146-40.361 0-11.146-11.145-11.146-29.216 0-40.361l88.593-88.593c11.145-11.146 29.216-11.146 40.361 0Z" fill="#D71D62"/><path fill-rule="evenodd" clip-rule="evenodd" d="M436.702 18.738c11.146 11.145 11.146 29.216 0 40.361L176.869 318.933c-11.146 11.145-29.217 11.145-40.362 0-11.146-11.146-11.146-29.217 0-40.362L396.34 18.737c11.146-11.145 29.216-11.145 40.362 0Z" fill="#2994D2"/><path fill-rule="evenodd" clip-rule="evenodd" d="M428.971 140.033c11.146 11.146 11.146 29.216 0 40.362L179.246 430.12c-11.145 11.146-29.216 11.146-40.362 0-11.145-11.145-11.145-29.216 0-40.362L388.61 140.033c11.145-11.146 29.216-11.146 40.361 0Z" fill="#6EBF23"/><path fill-rule="evenodd" clip-rule="evenodd" d="M341.532 341.633c11.145 11.145 11.145 29.216 0 40.361L166.129 557.397c-11.145 11.145-29.216 11.145-40.362 0-11.145-11.146-11.145-29.216 0-40.362L301.17 341.633c11.145-11.146 29.216-11.146 40.362 0Z" fill="#861450"/><path fill-rule="evenodd" clip-rule="evenodd" d="M543.128 368.353c11.146 11.146 11.146 29.217 0 40.362L371.293 580.55c-11.145 11.146-29.216 11.146-40.361 0-11.146-11.146-11.146-29.216 0-40.362l171.835-171.835c11.145-11.145 29.216-11.145 40.361 0Z" fill="#42AEA4"/><path d="M37.176 388.534c0-15.762 12.778-28.54 28.54-28.54 15.763 0 28.54 12.778 28.54 28.54 0 15.762-12.778 28.54-28.54 28.54-15.762 0-28.54-12.778-28.54-28.54Z" fill="#083D87"/><path d="M349.889 304.734c0-15.763 12.777-28.541 28.54-28.541 15.762 0 28.54 12.778 28.54 28.541 0 15.762-12.778 28.54-28.54 28.54-15.763 0-28.54-12.778-28.54-28.54Z" fill="#D71D62"/><path d="M380.248 160.214c0-15.762 12.778-28.54 28.54-28.54 15.762 0 28.54 12.778 28.54 28.54 0 15.762-12.778 28.54-28.54 28.54-15.762 0-28.54-12.778-28.54-28.54Z" fill="#336A2D"/><path d="M465.868 417.074c0-15.762 12.778-28.54 28.54-28.54 15.762 0 28.54 12.778 28.54 28.54 0 15.762-12.778 28.54-28.54 28.54-15.762 0-28.54-12.778-28.54-28.54Z" fill="#207B74"/><path fill-rule="evenodd" clip-rule="evenodd" d="M250.592 318.408c11.146 11.146 11.146 29.216 0 40.362L-7.458 616.82c-11.145 11.145-29.216 11.145-40.361 0-11.146-11.146-11.146-29.217 0-40.362l258.049-258.05c11.146-11.145 29.217-11.145 40.362 0Z" fill="#336A2D"/><path fill-rule="evenodd" clip-rule="evenodd" d="M283.889 171.546c11.146 11.146 11.146 29.216 0 40.362L144.162 351.635c-11.145 11.146-29.216 11.146-40.362 0-11.145-11.146-11.145-29.216 0-40.362l139.728-139.727c11.145-11.146 29.216-11.146 40.361 0Z" fill="#083D87"/><path d="M495.928 159.161c0-15.763 12.778-28.541 28.54-28.541 15.762 0 28.54 12.778 28.54 28.541 0 15.762-12.778 28.54-28.54 28.54-15.762 0-28.54-12.778-28.54-28.54Z" fill="#861450"/></g><defs><clipPath id="a"><path fill="#fff" d="M0 0h553v530H0z"/></clipPath></defs></svg>