<svg width="128" height="128" xmlns="http://www.w3.org/2000/svg"><g fill="none" fill-rule="evenodd"><path fill="#FFF" d="M-656-240H784v2649H-656z"/><g fill-rule="nonzero"><path d="M128 64c0 35.35-28.65 64-64 64S0 99.35 0 64 28.65 0 64 0s64 28.65 64 64Z" fill="#A6CE39"/><path d="M43.15 93.1h-7.7V39.55h7.7V93.1zm11.3-53.55h20.8c19.8 0 28.5 14.15 28.5 26.8 0 13.75-10.75 26.8-28.4 26.8h-20.9v-53.6Zm7.7 46.65H74.4c17.45 0 21.45-13.25 21.45-19.85C95.85 55.6 89 46.5 74 46.5H62.15v39.7Zm-17.8-57.8c0 2.75-2.25 5.05-5.05 5.05s-5.05-2.3-5.05-5.05c0-2.8 2.25-5.05 5.05-5.05s5.05 2.3 5.05 5.05Z" fill="#FFF"/></g><path d="M124 100h-2v-4c0-5.52-4.48-10-10-10s-10 4.48-10 10v4h-2c-2.2 0-4 1.8-4 4v20c0 2.2 1.8 4 4 4h24c2.2 0 4-1.8 4-4v-20c0-2.2-1.8-4-4-4Zm-12 18c-2.2 0-4-1.8-4-4s1.8-4 4-4 4 1.8 4 4-1.8 4-4 4Zm6.2-18h-12.4v-4c0-3.42 2.78-6.2 6.2-6.2 3.42 0 6.2 2.78 6.2 6.2v4Z" fill="#000" fill-rule="nonzero"/></g></svg>