<svg width="16" height="16" xmlns="http://www.w3.org/2000/svg"><g fill="none"><path d="M16 8a8 8 0 0 1-8 8 8 8 0 0 1-8-8 8 8 0 0 1 8-8 8 8 0 0 1 8 8Z" fill="#A6CE39"/><path d="M5.394 11.637H4.43V4.944h.963v6.693zm1.412-6.693h2.6c2.475 0 3.563 1.769 3.563 3.35 0 1.718-1.344 3.35-3.55 3.35H6.806v-6.7Zm.963 5.831H9.3c2.181 0 2.681-1.656 2.681-2.481 0-1.344-.856-2.482-2.731-2.482H7.769v4.963ZM5.544 3.55a.634.634 0 0 1-.631.631.634.634 0 0 1-.632-.631.63.63 0 0 1 .631-.631c.35 0 .632.287.632.631Z" fill="#FFF"/></g></svg>