<svg width="20" height="6" viewBox="0 0 20 6" xmlns="http://www.w3.org/2000/svg"><title>x2-format</title><g fill="none" fill-rule="evenodd"><path fill="#C8C8C8" d="M0 0h1v6H0zM1 0h3v1H1zM1 3h3v1H1zM4 1h1v2H4z"/><path fill="#D6D6D6" d="M1 1h1v2H1zM1 4h1v2H1z"/><path fill="#E4E4E4" d="M4 3h1v1H4zM4 0h1v1H4z"/><path fill="#D6D6D6" d="M3 1h1v2H3z"/><g><path fill="#CACACA" d="M8 0h1v6H8z"/><path fill="#CACACA" d="M8 0h4v1H8zM8 5h4v1H8zM12 1h1v4h-1z"/><path fill="#D6D6D6" d="M9 1h1v4H9zM11 1h1v4h-1z"/><path fill="#FFF" d="M10 1h1v4h-1z"/><path fill="#E4E4E4" d="M12 0h1v1h-1zM12 5h1v1h-1z"/></g><g><path fill="#CACACA" d="M16 0h1v6h-1z"/><path fill="#D6D6D6" d="M17 4h1v2h-1zM17 1h1v2h-1z"/><path fill="#CACACA" d="M17 0h3v1h-3zM17 3h3v1h-3z"/><path fill="#D6D6D6" d="M17 1h3v1h-3z"/></g></g></svg>