<svg width="44" height="33" viewBox="0 0 44 33" xmlns="http://www.w3.org/2000/svg"><title>quote-start</title><g fill="#0288D1" fill-rule="evenodd"><path d="M20.36 5.2c-3.04.96-5.46 2.4-7.26 4.32-1.8 1.92-2.5 4.4-2.1 7.44.88.72 2.12 1.46 3.72 2.22 1.6.76 3 1.34 4.2 1.74.32 1.28.32 2.52 0 3.72-.32 1.2-.84 2.26-1.56 3.18-.72.92-1.56 1.68-2.52 2.28-.96.6-1.84.94-2.64 1.02-2.8-.24-5.24-1.28-7.32-3.12s-3.12-4.48-3.12-7.92c0-2 .34-4 1.02-6 .68-2 1.7-3.86 3.06-5.58C7.2 6.78 8.92 5.26 11 3.94c2.08-1.32 4.56-2.26 7.44-2.82l1.92 4.08zM42.2 5.2c-3.04.96-5.46 2.4-7.26 4.32-1.8 1.92-2.5 4.4-2.1 7.44.88.72 2.12 1.46 3.72 2.22 1.6.76 3 1.34 4.2 1.74.32 1.28.32 2.52 0 3.72-.32 1.2-.84 2.26-1.56 3.18-.72.92-1.56 1.68-2.52 2.28-.96.6-1.84.94-2.64 1.02-2.8-.24-5.24-1.28-7.32-3.12s-3.12-4.48-3.12-7.92c0-2 .34-4 1.02-6 .68-2 1.7-3.86 3.06-5.58 1.36-1.72 3.08-3.24 5.16-4.56 2.08-1.32 4.56-2.26 7.44-2.82L42.2 5.2z"/></g></svg>