<svg width="44" height="33" viewBox="0 0 44 33" xmlns="http://www.w3.org/2000/svg"><title>quote-end</title><g fill="#0288D1" fill-rule="evenodd"><path d="M1.84 28.12c3.12-.96 5.7-2.6 7.74-4.92s2.86-5 2.46-8.04c-.88-.72-2.12-1.44-3.72-2.16-1.6-.72-3-1.32-4.2-1.8-.4-1.28-.42-2.52-.06-3.72.36-1.2.9-2.26 1.62-3.18.72-.92 1.54-1.68 2.46-2.28.92-.6 1.82-.9 2.7-.9 2.64.24 5.04 1.26 7.2 3.06s3.24 4.46 3.24 7.98c0 1.92-.4 3.92-1.2 6-.8 2.08-1.96 4.04-3.48 5.88-1.52 1.84-3.36 3.48-5.52 4.92-2.16 1.44-4.56 2.52-7.2 3.24l-2.04-4.08zM23.68 28.12c3.12-.96 5.7-2.6 7.74-4.92s2.86-5 2.46-8.04c-.88-.72-2.12-1.44-3.72-2.16-1.6-.72-3-1.32-4.2-1.8-.4-1.28-.42-2.52-.06-3.72.36-1.2.9-2.26 1.62-3.18.72-.92 1.54-1.68 2.46-2.28.92-.6 1.82-.9 2.7-.9 2.64.24 5.04 1.26 7.2 3.06s3.24 4.46 3.24 7.98c0 1.92-.4 3.92-1.2 6-.8 2.08-1.96 4.04-3.48 5.88-1.52 1.84-3.36 3.48-5.52 4.92-2.16 1.44-4.56 2.52-7.2 3.24l-2.04-4.08z"/></g></svg>