<svg width="66" height="10" viewBox="0 0 66 10" xmlns="http://www.w3.org/2000/svg"><title>x2-format</title><g fill="none" fill-rule="evenodd"><path d="M3.5 4h-2V2H0v6h1.5V5.5h2V8H5V2H3.5v2zM6 3.5h1.5V8H9V3.5h1.5V2H6v1.5z" fill="#C8C8C8"/><path fill="#E4E4E4" d="M13 2h1v1h-1zM15 2h1v1h-1zM13 5h1v3h-1zM15 5h1v3h-1z"/><path fill="#C8C8C8" d="M12 2h1v6h-1zM16 2h1v6h-1z"/><path fill="#D6D6D6" d="M13 4h1v1h-1zM15 4h1v1h-1z"/><path fill="#C8C8C8" d="M14 4h1v1h-1zM14 5h1v1h-1zM15 3h1v1h-1zM13 3h1v1h-1z"/><g><path fill="#D6D6D6" d="M21 2h1v6h-1z"/><path fill="#C8C8C8" d="M20 2h1v6h-1zM23 7h1v1h-1z"/><path fill="#D6D6D6" d="M21 6h3v1h-3z"/><path fill="#C8C8C8" d="M21 7h2v1h-2z"/></g><g><path fill="#C8C8C8" d="M46 2h1v6h-1zM47 2h3v1h-3zM47 5h3v1h-3zM50 3h1v2h-1z"/><path fill="#D6D6D6" d="M47 3h1v2h-1zM47 6h1v2h-1z"/><path fill="#E4E4E4" d="M50 5h1v1h-1zM50 2h1v1h-1z"/><path fill="#D6D6D6" d="M49 3h1v2h-1z"/><g><path fill="#CACACA" d="M54 2h1v6h-1z"/><path fill="#CACACA" d="M54 2h4v1h-4zM54 7h4v1h-4zM58 3h1v4h-1z"/><path fill="#D6D6D6" d="M55 3h1v4h-1zM57 3h1v4h-1z"/><path fill="#FFF" d="M56 3h1v4h-1z"/><path fill="#E4E4E4" d="M58 2h1v1h-1zM58 7h1v1h-1z"/></g><g><path fill="#CACACA" d="M62 2h1v6h-1z"/><path fill="#D6D6D6" d="M63 6h1v2h-1zM63 3h1v2h-1z"/><path fill="#CACACA" d="M63 2h3v1h-3zM63 5h3v1h-3z"/><path fill="#D6D6D6" d="M63 3h3v1h-3z"/></g></g><path d="M34.5.5v9" stroke="#C8C8C8" stroke-linecap="square"/></g></svg>