<svg width="43" height="135" viewBox="0 0 43 135" xmlns="http://www.w3.org/2000/svg" xmlns:xlink="http://www.w3.org/1999/xlink"><title>elife-error-404-illustration@2x</title><defs><path d="M48 125v3h-.007c.005.166.007.333.007.5 0 9.113-7.387 16.5-16.5 16.5S15 137.613 15 128.5c0-.167.002-.334.007-.5H15v-3h33z" id="a"/><mask id="c" x="0" y="0" width="33" height="20" fill="#fff"><use xlink:href="#a"/></mask><path d="M47.993 128H48V23l5-4v-9H10v9l5 4v105h.007c-.005.166-.007.333-.007.5 0 9.113 7.387 16.5 16.5 16.5S48 137.613 48 128.5c0-.167-.002-.334-.007-.5z" id="b"/><mask id="d" x="0" y="0" width="43" height="135" fill="#fff"><use xlink:href="#b"/></mask></defs><g transform="translate(-10 -10)" fill="none" fill-rule="evenodd"><path d="M0 0h63v155H0z"/><use stroke="#FFF" mask="url(#c)" stroke-width="14" fill="#B92B5B" xlink:href="#a"/><use stroke-opacity=".87" stroke="#000" mask="url(#d)" stroke-width="8" xlink:href="#b"/><path d="M24 40v60M24 107v5" stroke-opacity=".87" stroke="#000" stroke-width="4" stroke-linecap="round"/></g></svg>