<svg width="133" height="167" viewBox="0 0 133 167" xmlns="http://www.w3.org/2000/svg" xmlns:xlink="http://www.w3.org/1999/xlink"><title>elife-error-4xx-illustration</title><defs><path id="a" d="M4.615 29.243h34v62l4 4v7h-42v-7l4-4z"/><mask id="e" x="0" y="0" width="42" height="73" fill="#fff"><use xlink:href="#a"/></mask><path id="b" d="M8.615 10.243h26v23h-26z"/><mask id="f" x="0" y="0" width="26" height="23" fill="#fff"><use xlink:href="#b"/></mask><path id="c" d="M11.615.243h21v14h-21z"/><mask id="g" x="0" y="0" width="21" height="14" fill="#fff"><use xlink:href="#c"/></mask><path d="M37 160h82c14.29 0 14 16 14 16H23s0-16 14-16z" id="d"/><mask id="h" x="0" y="0" width="110" height="16" fill="#fff"><use xlink:href="#d"/></mask></defs><g transform="translate(-10 -9)" fill="none" fill-rule="evenodd"><path d="M0 0h153v186H0z"/><g transform="translate(23.828 .657)" stroke="#212121"><g stroke-width="4"><path d="M4.324 128.147a52.332 52.332 0 0 0 11.593 17.516c20.502 20.502 53.743 20.502 74.246 0 20.502-20.503 20.502-53.744 0-74.246a52.836 52.836 0 0 0-6.925-5.833"/><path d="M27.248 128.32a32.806 32.806 0 0 0 2.81 3.2c12.693 12.693 33.27 12.693 45.963 0 12.692-12.691 12.692-33.27 0-45.961a32.528 32.528 0 0 0-7.054-5.358"/></g><circle stroke-width="4" fill="#FFF" cx="94.879" cy="132.151" r="16"/><circle stroke-width="4" fill="#FFF" cx="94.879" cy="132.151" r="6"/><g transform="rotate(45 46.793 115.977)" stroke-width="8"><use mask="url(#e)" xlink:href="#a"/><use mask="url(#f)" xlink:href="#b"/><use mask="url(#g)" xlink:href="#c"/></g></g><path d="M12 129h61" stroke="#212121" stroke-width="4" stroke-linecap="round"/><use stroke="#212121" mask="url(#h)" stroke-width="8" xlink:href="#d"/><circle fill="#B92B5B" cx="44" cy="110" r="5"/></g></svg>