<svg width="157" height="156" viewBox="0 0 157 156" xmlns="http://www.w3.org/2000/svg" xmlns:xlink="http://www.w3.org/1999/xlink"><title>elife-error-maintenance-illustration</title><defs><circle id="a" cx="143" cy="80" r="2"/><mask id="e" x="-5" y="-5" width="14" height="14"><path fill="#fff" d="M136 73h14v14h-14z"/><use xlink:href="#a"/></mask><circle id="b" cx="69" cy="82" r="2"/><mask id="f" x="-5" y="-5" width="14" height="14"><path fill="#fff" d="M62 75h14v14H62z"/><use xlink:href="#b"/></mask><circle id="c" cx="32" cy="146" r="2"/><mask id="g" x="-5" y="-5" width="14" height="14"><path fill="#fff" d="M25 139h14v14H25z"/><use xlink:href="#c"/></mask><circle id="d" cx="87" cy="113" r="2"/><mask id="h" x="-5" y="-5" width="14" height="14"><path fill="#fff" d="M80 106h14v14H80z"/><use xlink:href="#d"/></mask></defs><g transform="translate(-9 -11)" fill="none" fill-rule="evenodd"><path d="M0 0h176v176H0z"/><path d="M72.5 87.5L84 109" stroke="#212121" stroke-width="4" stroke-linecap="round"/><path d="M26 74l4 7M68 146l4 7" stroke="#212121" stroke-width="4" stroke-linecap="square"/><path d="M84 117.5l-15.75 28.476m-40.5-3L12 113.5l18.75-32.476h33.5" stroke="#212121" stroke-width="4"/><path d="M68.5 146H37.436" stroke="#212121" stroke-width="4" stroke-linecap="square"/><path d="M140 84.5l-15.75 28.476h-31.5M71 77.5l15.75-29.476h35.5" stroke="#212121" stroke-width="4" stroke-linecap="round"/><use stroke="#212121" mask="url(#e)" stroke-width="10" xlink:href="#a"/><use stroke="#212121" mask="url(#f)" stroke-width="10" xlink:href="#b"/><use fill="#FFF" xlink:href="#c"/><use stroke="#212121" mask="url(#g)" stroke-width="10" xlink:href="#c"/><use stroke="#B92B5B" mask="url(#h)" stroke-width="10" xlink:href="#d"/><circle stroke="#B92B5B" stroke-width="4" cx="22" cy="69" r="6"/><circle stroke="#B92B5B" stroke-width="4" fill="#FFF" cx="113.5" cy="18.5" r="5.5"/><circle stroke="#B92B5B" stroke-width="4" cx="76" cy="159" r="6"/><path d="M145.5 18.5l18 32" stroke="#212121" stroke-width="4" stroke-linecap="round"/></g></svg>