<svg width="157" height="179" viewBox="0 0 157 179" xmlns="http://www.w3.org/2000/svg" xmlns:xlink="http://www.w3.org/1999/xlink"><title>elife-error-5xx-illustration</title><defs><circle id="a" cx="50" cy="148" r="2"/><mask id="f" x="-4" y="-4" width="12" height="12"><path fill="#fff" d="M44 142h12v12H44z"/><use xlink:href="#a"/></mask><circle id="b" cx="161" cy="110" r="2"/><mask id="g" x="-4" y="-4" width="12" height="12"><path fill="#fff" d="M155 104h12v12h-12z"/><use xlink:href="#b"/></mask><circle id="c" cx="89" cy="16" r="2"/><mask id="h" x="-4" y="-4" width="12" height="12"><path fill="#fff" d="M83 10h12v12H83z"/><use xlink:href="#c"/></mask><rect id="d" x="42" y="64" width="12" height="12" rx="2"/><mask id="i" x="0" y="0" width="12" height="12" fill="#fff"><use xlink:href="#d"/></mask><rect id="e" x="83" y="177" width="12" height="12" rx="2"/><mask id="j" x="0" y="0" width="12" height="12" fill="#fff"><use xlink:href="#e"/></mask></defs><g transform="translate(-10 -10)" fill="none" fill-rule="evenodd"><path d="M0 0h177v199H0z"/><rect fill="#212121" transform="rotate(45 66 88)" x="53" y="86" width="26" height="4" rx="2"/><rect fill="#212121" transform="rotate(45 117 138)" x="96" y="136" width="42" height="4" rx="2"/><rect fill="#212121" x="28" y="108" width="42" height="4" rx="2"/><rect fill="#212121" x="108" y="108" width="42" height="4" rx="2"/><rect fill="#212121" transform="rotate(90 89 59)" x="57" y="57" width="64" height="4" rx="2"/><rect fill="#212121" transform="rotate(90 89 150)" x="68" y="148" width="42" height="4" rx="2"/><rect fill="#212121" transform="rotate(-45 67 132)" x="54" y="130" width="26" height="4" rx="2"/><rect fill="#212121" transform="rotate(-45 118 81)" x="95" y="79" width="46" height="4" rx="2"/><path d="M140 56h-2.994A2.002 2.002 0 0 0 135 58c0 1.112.898 2 2.006 2H140v2.994c0 1.109.895 2.006 2 2.006 1.112 0 2-.898 2-2.006V60h2.994A2.002 2.002 0 0 0 149 58c0-1.112-.898-2-2.006-2H144v-2.994A2.002 2.002 0 0 0 142 51c-1.112 0-2 .898-2 2.006V56zM137 158h-2.994a2.002 2.002 0 0 0-2.006 2c0 1.112.898 2 2.006 2H137v2.994c0 1.109.895 2.006 2 2.006 1.112 0 2-.898 2-2.006V162h2.994a2.002 2.002 0 0 0 2.006-2c0-1.112-.898-2-2.006-2H141v-2.994a2.002 2.002 0 0 0-2-2.006c-1.112 0-2 .898-2 2.006V158zM15 108h-2.994A2.002 2.002 0 0 0 10 110c0 1.112.898 2 2.006 2H15v2.994c0 1.109.895 2.006 2 2.006 1.112 0 2-.898 2-2.006V112h2.994A2.002 2.002 0 0 0 24 110c0-1.112-.898-2-2.006-2H19v-2.994A2.002 2.002 0 0 0 17 103c-1.112 0-2 .898-2 2.006V108z" fill="#B92B5B"/><use stroke="#212121" mask="url(#f)" stroke-width="8" xlink:href="#a"/><use stroke="#212121" mask="url(#g)" stroke-width="8" xlink:href="#b"/><use stroke="#212121" mask="url(#h)" stroke-width="8" xlink:href="#c"/><use stroke="#212121" mask="url(#i)" stroke-width="8" xlink:href="#d"/><use stroke="#212121" mask="url(#j)" stroke-width="8" xlink:href="#e"/><circle fill="#B92B5B" cx="89" cy="110" r="5"/></g></svg>